<?xml version="1.0" encoding="utf-8"?>
<!-- Generator: Adobe Illustrator 15.0.0, SVG Export Plug-In  -->
<!DOCTYPE svg PUBLIC "-//W3C//DTD SVG 1.1//EN" "http://www.w3.org/Graphics/SVG/1.1/DTD/svg11.dtd" [
	<!ENTITY ns_flows "http://ns.adobe.com/Flows/1.0/">
]>
<svg version="1.1"
	 xmlns="http://www.w3.org/2000/svg" xmlns:xlink="http://www.w3.org/1999/xlink" xmlns:a="http://ns.adobe.com/AdobeSVGViewerExtensions/3.0/"
	 x="0px" y="0px" width="140px" height="140px" viewBox="0 0 140 140" enable-background="new 0 0 140 140" xml:space="preserve">
<defs>
</defs>
<path fill="#efefef" d="M70.016,0C31.346,0,0,31.338,0,70s31.346,70,70.016,70c38.669,0,70.016-31.338,70.016-70S108.686,0,70.016,0
	z M70.016,129.063c-32.627,0-59.076-26.44-59.076-59.063c0-32.62,26.448-59.063,59.076-59.063c32.628,0,59.075,26.443,59.075,59.063
	C129.091,102.621,102.645,129.063,70.016,129.063z"/>
<path id="path-1_3_" fill="#efefef" d="M69.865,88.469l-20.662,14.78l7.141-24.352L36.479,62.407l24.161-0.208l9.225-25.813
	l8.968,26.021h24.51L83.386,79.061l7.142,24.188L69.865,88.469L69.865,88.469z"/>
<path id="path-1_2_" fill="#efefef" d="M69.865,88.469l-20.662,14.78l7.141-24.352L36.479,62.407l24.161-0.208l9.225-25.813
	l8.968,26.021h24.51L83.386,79.061l7.142,24.188L69.865,88.469L69.865,88.469z"/>
</svg>
