<?xml version="1.0" encoding="utf-8"?>
<!-- Generator: Adobe Illustrator 15.0.0, SVG Export Plug-In  -->
<!DOCTYPE svg PUBLIC "-//W3C//DTD SVG 1.1//EN" "http://www.w3.org/Graphics/SVG/1.1/DTD/svg11.dtd" [
	<!ENTITY ns_flows "http://ns.adobe.com/Flows/1.0/">
]>
<svg version="1.1"
	 xmlns="http://www.w3.org/2000/svg" xmlns:xlink="http://www.w3.org/1999/xlink" xmlns:a="http://ns.adobe.com/AdobeSVGViewerExtensions/3.0/"
	 x="0px" y="0px" width="22px" height="22px" viewBox="-1.008 -5.815 22 22" enable-background="new -1.008 -5.815 22 22"
	 xml:space="preserve">
<defs>
</defs>
<path fill="#007AFF" d="M10.005,3.623L10.005,3.623c-0.004,0-0.01,0-0.014,0s-0.008,0-0.012,0v0
	C9.136,3.644,8.458,4.334,8.458,5.184c0,0.849,0.677,1.541,1.522,1.56v0.002c0.004,0,0.008-0.002,0.012-0.002S10,6.746,10.005,6.746
	V6.744c0.85-0.02,1.521-0.711,1.521-1.56C11.527,4.334,10.855,3.644,10.005,3.623z"/>
<path fill="#007AFF" d="M19.25,3.921C17.325,2.354,14.083,0.077,10.005,0l0,0c-0.004,0-0.01,0-0.014,0S9.983,0,9.979,0l0,0
	C5.903,0.077,2.658,2.354,0.733,3.921C0.641,3.996,0.01,4.479,0,5.097c-0.008,0.436,0.195,0.757,0.487,1.027
	c1.573,1.52,5.006,4.225,9.494,4.245v0.002c0.004,0,0.008,0,0.012,0c0.002,0,0.008,0,0.012,0v-0.002
	c4.496-0.02,7.919-2.725,9.492-4.245c0.292-0.27,0.494-0.591,0.486-1.027C19.971,4.479,19.342,3.996,19.25,3.921z M9.992,9.199
	C7.786,9.183,6.003,7.392,6.003,5.184s1.783-4,3.989-4.014c2.211,0.014,3.989,1.806,3.989,4.014S12.203,9.183,9.992,9.199z"/>
</svg>
